<svg xmlns="http://www.w3.org/2000/svg" version="1.1" xmlns:xlink="http://www.w3.org/1999/xlink" xmlns:svgjs="http://svgjs.dev/svgjs" width="1000" height="1204" viewBox="0 0 1000 1204"><g transform="matrix(1,0,0,1,0.9700959188356251,0.48744939271250587)"><svg viewBox="0 0 205 247" data-background-color="#ffffff" preserveAspectRatio="xMidYMid meet" height="1204" width="1000" xmlns="http://www.w3.org/2000/svg" xmlns:xlink="http://www.w3.org/1999/xlink"><g id="tight-bounds" transform="matrix(1,0,0,1,-0.1988696633613074,-0.09999999999999432)"><svg viewBox="0 0 205.39773932672261 247.2" height="247.2" width="205.39773932672261"><g><svg viewBox="0 0 397.4975999999999 478.39575567916677" height="247.2" width="205.39773932672261"><g><rect width="397.4975999999999" height="13.684856610053156" x="0" y="245.54096968161076" fill="#ff0000" opacity="1" stroke-width="0" stroke="transparent" fill-opacity="1" class="rect-o-0" data-fill-palette-color="primary" rx="1%" id="o-0" data-palette-color="#ff0000"></rect></g><g><rect width="397.4975999999999" height="13.684856610053156" x="0" y="277.13794227340884" fill="#ff0000" opacity="1" stroke-width="0" stroke="transparent" fill-opacity="1" class="rect-o-1" data-fill-palette-color="primary" rx="1%" id="o-1" data-palette-color="#ff0000"></rect></g><g transform="matrix(1,0,0,1,0.9887999999999693,326.6470308469519)"><svg viewBox="0 0 395.52 151.74872483221478" height="151.74872483221478" width="395.52"><g id="textblocktransform"><svg viewBox="0 0 395.52 151.74872483221478" height="151.74872483221478" width="395.52" id="textblock"><g><svg viewBox="0 0 395.52 151.74872483221478" height="151.74872483221478" width="395.52"><g transform="matrix(1,0,0,1,0,0)"><svg width="395.52" viewBox="3.950000047683716 -34.29999923706055 89.4000015258789 34.29999923706055" height="151.74872483221478" data-palette-color="#ff0000"><path d="M3.95 0L3.95-34.3 30.35-34.3 30.35-30.15 8.7-30.15 8.7-19.6 28.15-19.6 28.15-15.45 8.7-15.45 8.7-4.15 30.65-4.15 30.65 0 3.95 0ZM34.5 0L34.5-2.45 55.1-30.15 35.8-30.15 35.8-34.3 62.35-34.3 62.35-31.85 41.7-4.15 62.8-4.15 62.8 0 34.5 0ZM76.8 0L76.8-30.15 65-30.15 65-34.3 93.35-34.3 93.35-30.15 81.55-30.15 81.55 0 76.8 0Z" opacity="1" transform="matrix(1,0,0,1,0,0)" fill="#ff0000" class="undefined-text-0" data-fill-palette-color="primary" id="text-0"></path></svg></g></svg></g></svg></g></svg></g><g transform="matrix(1,0,0,1,94.11305698434576,0)"><svg viewBox="0 0 209.2714860313084 209.71673771812084" height="209.71673771812084" width="209.2714860313084"><g><svg xmlns="http://www.w3.org/2000/svg" xmlns:xlink="http://www.w3.org/1999/xlink" version="1.1" x="0" y="0" viewBox="0.5 0.5 47 47.099998474121094" enable-background="new 0 0 48 48" xml:space="preserve" height="209.71673771812084" width="209.2714860313084" class="icon-icon-0" data-fill-palette-color="accent" id="icon-0"><g fill="#ed2647" data-fill-palette-color="accent"><path d="M17.4 11.4h30.1V2.5c0-1.1-0.9-2-2-2H17.4V11.4z" fill="#ed2647" data-fill-palette-color="accent"></path><rect x="17.4" y="15.3" width="30.1" height="6.8" fill="#ed2647" data-fill-palette-color="accent"></rect><rect x="17.4" y="26" width="30.1" height="6.8" fill="#ed2647" data-fill-palette-color="accent"></rect><path d="M17.4 36.6v10.9h28.1c1.1 0 2-0.9 2-2v-8.9H17.4z" fill="#ed2647" data-fill-palette-color="accent"></path><path d="M13.5 0.5h-11c-1.1 0-2 0.9-2 2v43.1c0 1.1 0.9 2 2 2h11V0.5z" fill="#ed2647" data-fill-palette-color="accent"></path></g></svg></g></svg></g><g></g></svg></g><defs></defs></svg><rect width="205.39773932672261" height="247.2" fill="none" stroke="none" visibility="hidden"></rect></g></svg></g></svg>